<?xml version="1.0" standalone="no"?>
<!DOCTYPE svg PUBLIC "-//W3C//DTD SVG 20010904//EN"
 "http://www.w3.org/TR/2001/REC-SVG-20010904/DTD/svg10.dtd">
<svg version="1.0" xmlns="http://www.w3.org/2000/svg"
 width="381.000000pt" height="319.000000pt" viewBox="0 0 381.000000 319.000000"
 preserveAspectRatio="xMidYMid meet">

<g transform="translate(0.000000,319.000000) scale(0.100000,-0.100000)"
fill="#000000" stroke="none">
<path d="M1774 2385 c-263 -57 -471 -221 -592 -466 -68 -140 -99 -345 -72
-490 14 -78 33 -139 43 -139 5 0 6 8 3 18 -33 106 -45 244 -31 352 7 61 34
169 45 185 4 6 10 22 13 36 10 38 96 167 158 234 30 32 93 84 142 116 134 89
253 128 413 136 237 13 454 -70 620 -238 137 -137 207 -279 235 -477 11 -76
10 -109 0 -184 -7 -51 -17 -102 -21 -113 -20 -56 -21 -75 -1 -75 52 0 79 342
38 490 -85 313 -335 548 -655 616 -83 17 -257 17 -338 -1z"/>
<path d="M1730 2234 c0 -16 9 -18 28 -5 10 6 9 10 -7 14 -14 3 -21 0 -21 -9z"/>
<path d="M1846 2241 c-3 -5 1 -11 9 -14 9 -4 12 -1 8 9 -6 16 -10 17 -17 5z"/>
<path d="M1668 2222 c-13 -5 -15 -11 -8 -22 8 -12 10 -12 10 -1 0 9 7 11 21 8
16 -4 18 -3 8 9 -6 8 -12 14 -13 13 0 0 -9 -3 -18 -7z"/>
<path d="M1580 2207 c0 -7 6 -21 13 -31 12 -17 14 -17 20 -3 4 10 2 16 -6 14
-7 -1 -11 6 -11 16 1 9 -2 17 -7 17 -5 0 -9 -6 -9 -13z"/>
<path d="M1862 2151 c-32 -6 -30 -7 60 -55 l93 -49 59 38 c68 43 65 48 -35 64
-68 12 -124 12 -177 2z"/>
<path d="M1568 2138 c20 -20 13 -30 -17 -26 -17 2 -28 1 -25 -4 7 -11 51 -10
58 1 8 13 -4 41 -17 41 -7 0 -7 -4 1 -12z"/>
<path d="M1610 2140 c0 -5 4 -10 9 -10 6 0 13 5 16 10 3 6 -1 10 -9 10 -9 0
-16 -4 -16 -10z"/>
<path d="M1470 2085 c14 -16 26 -32 28 -34 1 -3 7 1 12 7 6 7 7 10 3 7 -4 -3
-20 7 -37 22 l-31 28 25 -30z"/>
<path d="M1735 2096 c-28 -12 -28 -12 47 -34 67 -20 82 -30 132 -82 31 -32 56
-64 56 -71 0 -7 -12 -55 -26 -106 -15 -52 -24 -96 -21 -99 3 -4 23 4 43 17
l37 22 -7 96 c-3 53 -6 110 -6 126 0 28 -7 34 -87 77 -121 64 -133 68 -168 54z"/>
<path d="M1390 2075 c0 -4 10 -24 22 -44 17 -26 24 -31 26 -19 2 9 11 18 20
20 14 3 13 6 -5 16 -20 11 -22 10 -16 -4 4 -12 2 -15 -8 -12 -8 3 -14 13 -14
23 0 10 -6 20 -13 23 -6 2 -12 0 -12 -3z"/>
<path d="M1701 2005 c3 -12 20 -22 52 -30 43 -11 47 -10 47 5 0 12 -11 20 -36
24 -19 4 -42 10 -51 13 -11 4 -14 1 -12 -12z"/>
<path d="M1553 1993 c-8 -3 -13 -23 -13 -49 0 -48 14 -52 23 -7 3 16 9 36 12
46 7 17 1 20 -22 10z"/>
<path d="M1620 1948 c-6 -24 -13 -51 -16 -60 -4 -13 0 -18 14 -18 24 0 47 73
31 102 -14 26 -17 23 -29 -24z"/>
<path d="M1310 1972 c0 -4 15 -23 33 -40 32 -31 34 -32 33 -10 -1 13 4 22 12
21 24 -5 11 7 -24 22 -41 17 -54 19 -54 7z m50 -22 c0 -5 -4 -10 -9 -10 -6 0
-13 5 -16 10 -3 6 1 10 9 10 9 0 16 -4 16 -10z"/>
<path d="M1445 1889 c-40 -57 -68 -115 -85 -181 -6 -24 -13 -51 -16 -60 -8
-28 11 -22 87 29 l71 48 -6 104 c-4 58 -8 107 -10 108 -2 2 -20 -19 -41 -48z"/>
<path d="M1706 1922 c-2 -4 -7 -24 -11 -45 -6 -33 -5 -37 13 -37 12 0 24 -5
27 -10 4 -7 12 -7 24 0 20 10 34 67 19 76 -18 12 -68 22 -72 16z"/>
<path d="M1281 1917 c16 -12 79 -45 79 -42 0 7 -63 45 -74 45 -5 0 -7 -1 -5
-3z"/>
<path d="M1810 1875 c0 -14 -4 -25 -8 -25 -13 0 -1 -62 14 -78 18 -18 18 -32
-1 -32 -9 0 -20 11 -25 24 -10 27 -47 52 -68 47 -8 -1 -19 3 -27 9 -10 8 -15
4 -24 -21 -21 -61 -17 -66 62 -89 39 -12 78 -23 85 -25 9 -3 10 3 6 20 -5 19
-2 25 10 25 9 0 16 -5 16 -12 0 -8 3 -8 9 -2 8 8 41 131 41 153 0 7 -66 31
-84 31 -3 0 -6 -11 -6 -25z"/>
<path d="M1257 1873 c-16 -15 -5 -34 29 -48 46 -19 53 -19 28 -1 -18 14 -18
15 6 25 24 9 24 10 3 10 -12 1 -25 6 -28 11 -7 11 -28 13 -38 3z m33 -19 c0
-9 -5 -14 -12 -12 -18 6 -21 28 -4 28 9 0 16 -7 16 -16z"/>
<path d="M1610 1824 c0 -8 5 -12 10 -9 6 4 8 11 5 16 -9 14 -15 11 -15 -7z"/>
<path d="M1551 1779 c-1 -42 3 -58 14 -63 19 -7 19 15 1 74 l-15 45 0 -56z"/>
<path d="M1227 1803 c-14 -13 -6 -28 16 -28 12 -1 33 -4 47 -8 14 -4 9 0 -10
9 -19 9 -38 20 -41 25 -3 5 -8 6 -12 2z"/>
<path d="M1200 1716 c0 -19 6 -22 58 -31 36 -6 42 -4 42 10 0 14 -3 15 -14 6
-11 -10 -17 -8 -26 6 -8 13 -13 14 -16 6 -8 -18 -24 -16 -24 2 0 8 -4 15 -10
15 -5 0 -10 -6 -10 -14z"/>
<path d="M2420 1651 l-95 -58 -3 -131 c-3 -154 -3 -155 105 -150 l67 3 20 55
c17 44 21 79 21 180 0 69 -4 133 -10 142 -9 14 -21 10 -105 -41z"/>
<path d="M1674 1662 c10 -16 105 -55 120 -49 31 12 15 25 -49 41 -74 18 -78
19 -71 8z"/>
<path d="M1196 1651 c-9 -14 18 -20 55 -11 19 4 27 9 19 10 -8 1 -27 4 -42 6
-14 2 -29 0 -32 -5z"/>
<path d="M1235 1620 c3 -5 -3 -10 -14 -10 -18 0 -38 -17 -30 -24 2 -2 24 -6
48 -9 42 -5 47 6 6 16 -15 4 -13 5 8 6 30 1 36 15 11 25 -23 9 -36 7 -29 -4z"/>
<path d="M1202 1534 c-32 -22 -13 -54 33 -54 43 0 64 30 39 54 -20 20 -43 20
-72 0z m57 -3 c23 -15 5 -43 -26 -39 -47 5 -42 37 7 47 3 0 11 -3 19 -8z"/>
<path d="M1280 1448 c0 -21 -26 -24 -33 -5 -3 7 -6 5 -6 -5 -1 -21 -27 -24
-34 -5 -3 6 -6 4 -6 -7 -1 -17 4 -18 46 -12 55 7 58 9 44 33 -10 17 -10 17
-11 1z"/>
<path d="M1273 1389 c-31 -11 -29 -21 2 -13 34 8 34 -22 0 -38 -21 -9 -28 -8
-45 7 -18 16 -20 16 -15 2 16 -40 95 -26 95 17 0 31 -8 36 -37 25z"/>
<path d="M1839 1286 c-2 -2 -82 -6 -177 -10 -94 -4 -209 -11 -255 -16 -212
-25 -268 -33 -282 -44 -8 -6 -17 -27 -19 -46 -3 -19 -5 -37 -6 -40 -10 -27 20
-99 63 -151 21 -26 24 -26 97 -18 304 32 842 39 1150 14 102 -8 199 -18 217
-21 28 -5 34 -2 63 38 17 23 50 80 72 125 49 99 46 105 -49 121 -193 32 -851
68 -874 48z m-255 -52 c9 -3 16 -17 16 -30 0 -21 -5 -24 -38 -24 -49 0 -82
-23 -82 -59 0 -33 17 -57 47 -65 31 -10 40 13 13 34 -32 24 -20 47 27 52 21 3
41 3 46 1 4 -2 7 -33 7 -67 0 -72 -4 -76 -92 -76 -39 0 -54 6 -80 29 -30 26
-33 35 -33 84 0 41 5 61 20 77 35 40 106 61 149 44z m299 -36 c66 -187 66
-191 15 -181 -17 3 -28 13 -33 30 -8 34 -57 29 -65 -7 -6 -26 -44 -40 -61 -23
-5 5 4 54 23 116 l31 107 38 0 c35 0 38 -3 52 -42z m234 -38 c1 -41 2 -81 2
-87 1 -8 16 -13 41 -13 36 0 40 -2 40 -25 0 -24 -2 -25 -69 -25 -39 0 -72 3
-74 8 -3 4 -3 56 0 115 l6 108 26 -3 c25 -3 26 -5 28 -78z m358 45 c0 -16 -8
-21 -40 -23 -50 -4 -75 -26 -75 -67 0 -39 24 -62 70 -67 27 -2 35 -7 35 -23 0
-17 -8 -20 -45 -23 -61 -3 -105 24 -119 74 -25 91 28 156 124 151 43 -2 50 -5
50 -22z m-1290 -14 c3 -5 1 -12 -5 -16 -5 -3 -10 1 -10 9 0 18 6 21 15 7z m83
-63 c18 -18 14 -63 -8 -83 -45 -41 -110 18 -76 70 18 27 63 34 84 13z m1420
-10 c16 -16 15 -53 -2 -67 -8 -7 -27 -11 -42 -9 -53 6 -50 88 4 88 15 0 33 -5
40 -12z"/>
<path d="M1825 1147 c-4 -10 -5 -21 -1 -24 10 -10 18 4 13 24 -4 17 -4 17 -12
0z"/>
<path d="M1402 918 c7 -24 142 -107 228 -142 115 -46 184 -59 320 -58 83 0
138 6 199 21 102 26 251 98 311 151 41 36 43 39 21 40 -13 0 -38 -10 -55 -23
-156 -116 -311 -162 -520 -154 -182 6 -288 41 -442 143 -55 37 -68 41 -62 22z"/>
<path d="M1663 894 c-8 -21 19 -38 30 -18 9 16 1 34 -14 34 -5 0 -12 -7 -16
-16z"/>
<path d="M2194 904 c-12 -5 -7 -44 5 -44 17 1 33 20 28 34 -6 16 -13 18 -33
10z"/>
<path d="M1799 882 c0 -4 -2 -15 -4 -24 -5 -25 31 -23 38 1 3 13 -1 21 -14 24
-11 3 -19 2 -20 -1z"/>
<path d="M2062 881 c-16 -10 -6 -38 13 -38 8 0 16 6 19 13 6 17 -16 35 -32 25z"/>
<path d="M1924 864 c-7 -3 -10 -13 -7 -23 6 -23 45 -16 41 7 -3 17 -17 23 -34
16z"/>
</g>
</svg>
