<?xml version="1.0" standalone="no"?>
<!DOCTYPE svg PUBLIC "-//W3C//DTD SVG 20010904//EN"
 "http://www.w3.org/TR/2001/REC-SVG-20010904/DTD/svg10.dtd">
<svg version="1.0" xmlns="http://www.w3.org/2000/svg"
 width="651.000000pt" height="768.000000pt" viewBox="0 0 651.000000 768.000000"
 preserveAspectRatio="xMidYMid meet">

<g transform="translate(0.000000,768.000000) scale(0.100000,-0.100000)"
fill="#000000" stroke="none">
<path d="M2549 7029 c-96 -15 -176 -74 -220 -165 -27 -54 -32 -76 -32 -134 0
-171 132 -303 303 -303 121 0 218 60 271 169 110 222 -75 471 -322 433z"/>
<path d="M3012 6991 c-8 -4 -13 -11 -13 -15 0 -3 -2 -12 -5 -20 -3 -8 -4 -119
-2 -246 2 -192 6 -232 18 -240 23 -15 503 -13 518 2 17 17 17 499 0 516 -14
14 -494 17 -516 3z"/>
<path d="M3675 6983 c-23 -23 -18 -499 5 -513 23 -15 503 -13 518 2 9 9 12 79
12 256 0 200 -3 246 -15 258 -22 22 -498 20 -520 -3z"/>
<path d="M2360 6333 c-8 -3 -18 -11 -22 -17 -4 -6 -8 -120 -8 -254 0 -210 2
-246 16 -259 13 -14 20 -14 36 -4 12 8 17 8 13 1 -11 -17 444 -13 461 5 11 11
14 66 14 265 l0 250 -26 10 c-26 10 -458 13 -484 3z"/>
<path d="M3011 6321 c-18 -18 -20 -34 -18 -259 2 -188 5 -243 16 -256 12 -15
41 -16 260 -16 157 1 250 5 258 12 10 8 13 70 13 259 0 245 0 248 -22 263 -19
13 -61 16 -255 16 -217 0 -234 -1 -252 -19z"/>
<path d="M2348 5659 c-16 -9 -18 -32 -18 -260 0 -204 3 -253 14 -265 12 -11
60 -14 256 -14 196 0 244 3 256 14 11 12 14 61 14 265 0 237 -1 251 -19 261
-26 13 -480 13 -503 -1z"/>
<path d="M3014 5656 c-18 -14 -19 -28 -19 -258 0 -216 2 -246 17 -261 15 -15
45 -17 258 -17 198 0 244 3 256 15 12 12 14 58 14 265 l-1 251 -25 9 c-14 6
-128 10 -253 10 -180 0 -231 -3 -247 -14z"/>
<path d="M3680 5650 c-19 -19 -20 -33 -20 -255 0 -172 3 -235 12 -235 6 0 9
-3 5 -6 -3 -4 0 -13 8 -20 20 -20 482 -20 510 0 17 12 18 16 5 32 -9 11 -10
15 -2 10 9 -6 12 42 12 228 0 200 -2 237 -16 250 -13 14 -51 16 -255 16 -226
0 -240 -1 -259 -20z"/>
<path d="M2347 4989 c-16 -9 -18 -31 -17 -265 1 -237 2 -255 20 -264 11 -6
115 -10 250 -10 135 0 239 4 250 10 18 9 19 27 20 265 1 243 0 254 -19 264
-26 15 -480 14 -504 0z"/>
<path d="M3014 4986 c-18 -14 -19 -28 -19 -259 0 -192 3 -247 14 -260 12 -15
42 -17 253 -17 146 0 247 4 259 10 18 10 19 24 19 265 0 241 -1 255 -19 265
-12 6 -111 10 -253 10 -187 0 -238 -3 -254 -14z"/>
<path d="M2222 4049 c-60 -14 -109 -65 -117 -123 -13 -85 24 -140 128 -192 90
-45 107 -60 107 -95 0 -59 -63 -73 -172 -39 -34 11 -66 20 -69 20 -4 0 -6 -23
-5 -51 1 -51 2 -52 41 -66 58 -21 183 -20 229 2 101 48 125 174 48 248 -15 15
-64 46 -107 69 -76 41 -80 45 -80 78 0 63 52 74 171 35 17 -5 24 1 39 35 11
24 15 44 9 49 -30 28 -158 45 -222 30z"/>
<path d="M4936 4049 c-130 -32 -187 -117 -187 -281 0 -185 88 -281 261 -281
121 0 190 41 236 138 20 41 24 66 24 141 0 143 -34 215 -125 259 -57 28 -150
39 -209 24z m140 -105 c54 -26 77 -86 72 -190 -5 -95 -21 -127 -79 -157 -59
-31 -137 -9 -175 48 -19 29 -29 125 -20 189 8 49 44 102 80 116 34 14 85 11
122 -6z"/>
<path d="M1235 4037 c-3 -7 -4 -131 -3 -277 l3 -265 58 -3 57 -3 0 281 0 280
-55 0 c-36 0 -57 -5 -60 -13z"/>
<path d="M1495 4038 c-3 -7 -4 -132 -3 -278 l3 -265 54 -3 53 -3 -3 210 c-2
115 -2 207 0 205 3 -3 57 -96 122 -207 l116 -202 77 -3 76 -3 0 281 0 280 -56
0 -56 0 4 -204 c2 -113 1 -203 -2 -200 -3 3 -57 94 -120 202 l-115 197 -73 3
c-53 2 -74 -1 -77 -10z"/>
<path d="M2504 4036 c-3 -8 -4 -29 -2 -48 l3 -33 78 -3 77 -3 0 -229 0 -230
55 0 55 0 0 230 0 229 78 3 77 3 0 45 0 45 -208 3 c-172 2 -208 0 -213 -12z"/>
<path d="M3010 3770 l0 -280 60 0 60 0 0 280 0 280 -60 0 -60 0 0 -280z"/>
<path d="M3220 4000 l0 -50 75 0 75 0 0 -230 0 -230 60 0 60 0 0 230 0 230 75
0 75 0 0 50 0 50 -210 0 -210 0 0 -50z"/>
<path d="M3720 3858 c0 -106 5 -210 11 -231 14 -50 71 -113 117 -128 87 -29
214 -8 271 44 53 49 61 85 61 305 l0 202 -60 0 -60 0 0 -195 c0 -227 -5 -247
-70 -266 -31 -9 -49 -9 -80 0 -65 19 -70 39 -70 266 l0 195 -60 0 -60 0 0
-192z"/>
<path d="M4260 4000 l0 -50 75 0 75 0 0 -230 0 -230 60 0 60 0 0 230 0 230 75
0 75 0 0 50 0 50 -210 0 -210 0 0 -50z"/>
<path d="M1612 3103 l3 -278 58 -3 57 -3 0 111 0 110 95 0 95 0 0 50 0 50 -95
0 -95 0 0 70 0 70 100 0 100 0 0 50 0 50 -160 0 -160 0 2 -277z"/>
<path d="M2042 3103 l3 -278 158 -3 157 -3 0 51 0 50 -100 0 -100 0 0 70 0 69
93 3 92 3 3 48 3 47 -95 0 -96 0 0 60 0 60 100 0 100 0 0 50 0 50 -160 0 -160
0 2 -277z"/>
<path d="M2480 3099 l0 -282 128 5 c178 8 251 41 305 143 18 33 22 57 22 140
0 88 -3 105 -25 145 -33 58 -96 105 -160 119 -28 6 -100 11 -160 11 l-110 0 0
-281z m286 151 c37 -35 54 -80 54 -147 -1 -84 -28 -139 -82 -163 -24 -11 -64
-20 -90 -20 l-48 0 0 181 0 181 70 -4 c56 -3 74 -8 96 -28z"/>
<path d="M3060 3100 l0 -280 160 0 160 0 0 50 0 50 -100 0 -100 0 0 70 0 69
93 3 92 3 3 48 3 47 -95 0 -96 0 0 60 0 60 100 0 100 0 0 50 0 50 -160 0 -160
0 0 -280z"/>
<path d="M3500 3101 l0 -282 58 3 57 3 0 105 0 105 31 3 c29 3 34 -2 99 -107
l68 -111 65 0 64 0 -18 28 c-9 15 -46 69 -80 121 l-63 95 33 22 c66 45 87 149
43 215 -38 58 -84 73 -229 77 l-128 4 0 -281z m238 163 c16 -11 22 -25 22 -53
0 -52 -25 -73 -91 -75 l-52 -1 -1 73 -1 72 50 0 c30 0 60 -6 73 -16z"/>
<path d="M4131 3358 c-46 -126 -181 -518 -181 -527 0 -7 23 -11 60 -11 l59 0
21 70 21 71 101 -3 101 -3 22 -65 22 -65 63 -3 c48 -2 61 0 58 10 -3 7 -47
133 -99 280 l-94 268 -73 0 c-66 0 -73 -2 -81 -22z m149 -295 c0 -9 -19 -13
-63 -13 -35 0 -66 3 -70 6 -3 3 -1 18 3 32 5 15 21 67 36 117 l27 90 33 -110
c19 -61 34 -116 34 -122z"/>
<path d="M4552 3103 l3 -278 170 0 170 0 3 48 3 47 -115 0 -116 0 0 230 0 230
-60 0 -60 0 2 -277z"/>
<path d="M2640 2235 c0 -208 1 -215 20 -215 19 0 20 7 20 215 0 208 -1 215
-20 215 -19 0 -20 -7 -20 -215z"/>
<path d="M2386 2422 c-6 -10 -156 -392 -156 -398 0 -2 10 -4 23 -4 18 0 26 11
45 65 l24 65 83 0 83 0 25 -62 c20 -52 29 -64 50 -66 25 -3 24 -1 -54 198 -43
111 -79 203 -79 206 0 7 -39 4 -44 -4z m53 -140 c17 -46 31 -85 31 -88 0 -2
-29 -4 -64 -4 l-65 0 32 89 c17 49 33 89 34 88 1 -2 16 -40 32 -85z"/>
<path d="M2827 2319 c-29 -11 -35 -48 -6 -40 90 23 139 6 139 -50 0 -27 -2
-29 -42 -29 -64 0 -115 -17 -138 -47 -63 -80 35 -175 134 -128 20 10 36 21 36
26 0 5 5 9 10 9 6 0 10 -9 10 -20 0 -14 7 -20 21 -20 20 0 20 4 17 130 -3 118
-5 132 -25 151 -25 26 -110 35 -156 18z m133 -178 c0 -43 -9 -60 -41 -76 -56
-29 -109 -10 -109 39 0 41 38 63 113 65 35 1 37 -1 37 -28z"/>
<path d="M3141 2316 c-54 -30 -67 -106 -26 -154 22 -26 23 -31 10 -42 -18 -15
-20 -51 -3 -68 7 -7 8 -12 2 -12 -24 0 -54 -42 -54 -75 0 -55 44 -85 123 -85
96 0 157 40 157 102 0 62 -41 88 -143 88 -33 0 -49 5 -53 15 -10 24 15 45 53
45 83 0 138 75 103 141 -9 15 -7 19 7 19 24 0 49 17 40 26 -14 15 -191 15
-216 0z m107 -32 c16 -11 22 -25 22 -54 0 -29 -6 -43 -22 -54 -51 -36 -108 -7
-108 54 0 42 26 70 65 70 11 0 31 -7 43 -16z m48 -275 c22 -18 17 -45 -12 -68
-34 -27 -134 -30 -158 -5 -29 28 -18 66 24 83 31 13 126 7 146 -10z"/>
<path d="M3484 2320 c-88 -36 -109 -200 -33 -271 64 -59 176 -43 215 32 21 42
18 147 -6 186 -33 55 -113 79 -176 53z m113 -45 c47 -33 55 -153 13 -195 -46
-46 -114 -36 -143 20 -25 49 -19 131 13 165 27 29 83 34 117 10z"/>
<path d="M3813 2319 c-35 -10 -38 -15 -24 -38 6 -10 13 -11 29 -2 28 15 97 14
110 -1 5 -7 12 -26 14 -43 l3 -30 -69 -7 c-77 -7 -114 -28 -129 -72 -30 -89
95 -150 177 -85 l26 20 0 -20 c0 -14 6 -21 20 -21 19 0 20 7 20 126 0 125 0
126 -29 155 -24 24 -38 29 -73 28 -24 0 -58 -5 -75 -10z m127 -183 c0 -47 -27
-76 -75 -83 -32 -4 -44 -1 -59 16 -42 46 12 99 102 100 30 1 32 -1 32 -33z"/>
<path d="M4108 2315 c-31 -17 -43 -52 -34 -90 5 -20 24 -34 84 -63 57 -27 78
-43 80 -59 7 -46 -76 -66 -152 -37 -14 6 -17 2 -14 -17 4 -28 51 -42 115 -34
61 9 93 37 93 85 0 46 -21 66 -104 100 -59 23 -77 50 -55 77 11 12 27 14 80
10 53 -4 69 -3 73 8 8 21 -8 27 -78 31 -43 3 -69 0 -88 -11z"/>
<path d="M972 1679 c4 -12 330 -15 2277 -18 1655 -2 2276 0 2284 8 8 8 -109
11 -438 11 -248 0 -1277 3 -2289 7 -1582 5 -1838 4 -1834 -8z"/>
<path d="M2302 1419 c-67 -33 -102 -99 -102 -189 0 -131 68 -202 191 -201 74
0 99 7 99 30 0 14 -9 16 -68 13 -90 -5 -126 13 -154 75 -16 37 -19 59 -15 106
6 68 27 103 78 130 33 18 40 18 144 5 31 -4 26 34 -5 43 -52 14 -125 9 -168
-12z"/>
<path d="M2622 1329 c-24 -7 -32 -15 -30 -27 3 -9 11 -15 19 -13 8 2 35 6 60
8 40 5 48 2 63 -18 9 -13 16 -34 16 -46 0 -21 -5 -23 -50 -23 -122 0 -189 -83
-127 -155 30 -36 103 -39 147 -7 28 21 29 21 35 2 4 -11 13 -20 21 -20 19 0
20 246 0 272 -26 35 -88 46 -154 27z m125 -185 c-8 -46 -31 -72 -72 -80 -45
-8 -75 10 -75 44 0 15 4 33 9 40 10 17 56 30 105 31 l39 1 -6 -36z"/>
<path d="M2984 1331 c-12 -5 -25 -14 -29 -20 -9 -16 -25 -13 -25 4 0 8 -9 15
-20 15 -19 0 -20 -7 -20 -150 0 -140 1 -150 19 -150 17 0 19 11 23 110 4 98 7
113 28 135 28 30 79 34 103 7 14 -15 17 -41 17 -135 l0 -117 25 0 25 0 0 110
c0 104 1 112 25 135 27 28 71 33 101 11 17 -13 19 -29 22 -135 3 -111 5 -121
23 -121 18 0 19 8 19 124 0 108 -2 126 -20 149 -35 44 -114 47 -159 6 l-22
-20 -17 21 c-19 24 -84 35 -118 21z"/>
<path d="M3497 1321 c-29 -15 -37 -16 -37 -5 0 8 -9 14 -20 14 -19 0 -20 -7
-20 -220 0 -213 1 -220 20 -220 19 0 20 7 20 90 l0 91 29 -22 c33 -24 94 -29
130 -10 40 22 61 70 61 139 0 79 -20 125 -65 146 -43 21 -73 20 -118 -3z m100
-36 c47 -33 54 -141 13 -195 -14 -19 -28 -25 -58 -25 -22 0 -47 7 -56 14 -43
35 -45 163 -3 201 25 24 74 26 104 5z"/>
<path d="M4140 1323 c-29 -15 -35 -24 -38 -56 -4 -49 8 -62 89 -99 71 -32 85
-48 69 -78 -11 -21 -66 -35 -99 -26 -12 3 -30 9 -41 12 -15 4 -20 1 -20 -15 0
-24 26 -33 90 -33 87 0 136 47 114 110 -9 24 -40 45 -119 79 -42 19 -55 44
-35 68 14 17 76 20 113 6 20 -8 27 -6 31 6 10 24 -6 34 -65 39 -40 4 -63 1
-89 -13z"/>
<path d="M3761 1205 c4 -117 5 -126 29 -149 38 -37 122 -39 159 -5 l22 21 6
-21 c3 -12 13 -21 24 -21 18 0 19 10 19 150 l0 150 -25 0 c-25 0 -25 0 -25
-100 0 -54 -5 -110 -11 -124 -22 -48 -116 -59 -139 -16 -6 10 -10 68 -10 129
l0 111 -26 0 -26 0 3 -125z"/>
<path d="M2377 826 c-10 -26 4 -47 27 -44 15 2 21 10 21 28 0 29 -38 41 -48
16z"/>
<path d="M2020 620 l0 -210 25 0 c25 0 25 1 25 85 l0 85 44 0 45 0 48 -82 c40
-68 54 -84 76 -86 15 -2 27 -1 27 2 0 3 -24 45 -54 94 l-53 88 29 17 c36 21
61 78 52 121 -14 69 -68 96 -191 96 l-73 0 0 -210z m198 134 c18 -21 22 -35
18 -58 -9 -48 -39 -66 -107 -66 l-59 0 0 81 0 82 62 -6 c52 -5 67 -10 86 -33z"/>
<path d="M3040 620 l0 -210 115 0 c108 0 115 1 115 20 0 19 -7 20 -90 20 l-90
0 0 190 0 190 -25 0 -25 0 0 -210z"/>
<path d="M2579 707 c-93 -62 -93 -226 0 -281 66 -39 155 -19 193 43 31 48 32
141 3 191 -40 67 -132 90 -196 47z m136 -41 c13 -13 27 -40 31 -60 19 -106
-41 -183 -123 -155 -47 15 -66 56 -61 132 4 50 9 64 32 84 37 31 89 31 121 -1z"/>
<path d="M3393 719 c-37 -11 -45 -20 -33 -39 7 -11 14 -12 35 -2 63 29 125 4
125 -49 0 -23 -5 -26 -76 -36 -95 -14 -124 -37 -124 -98 0 -31 6 -47 25 -65
33 -31 104 -32 145 -2 36 27 40 27 40 2 0 -13 7 -20 20 -20 19 0 20 7 20 114
0 62 -5 127 -11 145 -19 54 -85 73 -166 50z m127 -188 c0 -17 -10 -42 -24 -58
-19 -22 -32 -28 -65 -28 -48 0 -63 13 -63 51 0 42 34 64 98 64 53 0 54 0 54
-29z"/>
<path d="M3760 713 c-14 -9 -30 -24 -37 -33 -11 -13 -12 -11 -13 13 0 20 -5
27 -20 27 -19 0 -20 -7 -20 -155 0 -148 1 -155 20 -155 19 0 20 7 20 90 0 131
25 180 92 183 31 2 51 22 41 40 -8 13 -58 7 -83 -10z"/>
<path d="M3955 721 c-62 -27 -82 -116 -36 -165 22 -23 22 -26 7 -41 -19 -19
-21 -56 -4 -73 7 -7 8 -12 2 -12 -23 0 -54 -42 -54 -74 0 -53 37 -80 118 -84
122 -6 196 56 162 137 -15 36 -52 51 -132 51 -44 0 -60 4 -65 15 -7 19 24 55
42 49 24 -10 95 16 111 41 17 26 21 68 10 103 -6 19 -4 22 18 22 16 0 26 6 26
15 0 10 -10 15 -34 15 -18 0 -60 2 -92 5 -32 3 -68 1 -79 -4z m108 -53 c38
-45 9 -108 -50 -108 -46 0 -73 24 -73 64 0 39 9 52 40 65 32 12 60 5 83 -21z
m21 -258 c34 -13 36 -62 4 -84 -34 -24 -140 -22 -163 4 -22 25 -13 67 18 80
30 12 110 12 141 0z"/>
<path d="M4291 712 c-57 -29 -76 -63 -76 -140 1 -80 21 -124 68 -148 74 -39
166 -11 198 59 67 149 -56 298 -190 229z m125 -45 c22 -19 28 -34 32 -80 3
-35 -1 -69 -8 -88 -30 -70 -137 -72 -166 -3 -28 66 -11 157 33 183 31 18 80
12 109 -12z"/>
<path d="M2380 565 c0 -148 1 -155 20 -155 19 0 20 7 20 155 0 148 -1 155 -20
155 -19 0 -20 -7 -20 -155z"/>
</g>
</svg>
